<?xml version="1.0" standalone="no"?>
<!DOCTYPE svg PUBLIC "-//W3C//DTD SVG 20010904//EN"
 "http://www.w3.org/TR/2001/REC-SVG-20010904/DTD/svg10.dtd">
<svg version="1.0" xmlns="http://www.w3.org/2000/svg"
 width="640.000000pt" height="640.000000pt" viewBox="0 0 640.000000 640.000000"
 preserveAspectRatio="xMidYMid meet">
<metadata>
Created by potrace 1.14, written by Peter Selinger 2001-2017
</metadata>
<g transform="translate(0.000000,640.000000) scale(0.100000,-0.100000)"
fill="#000000" stroke="none">
<path d="M2352 5046 c26 -6 53 -17 60 -23 17 -18 28 -16 28 6 0 19 -44 32
-105 30 -25 -1 -22 -3 17 -13z"/>
<path d="M2096 4908 c16 -52 45 -96 97 -146 31 -28 61 -52 66 -52 6 0 11 -13
11 -28 0 -17 10 -38 25 -52 32 -30 32 -50 0 -50 -29 0 -43 -24 -26 -44 11 -14
68 -16 89 -3 17 11 15 25 -8 44 -24 20 -25 36 -6 52 16 13 12 15 196 -94 107
-63 150 -96 150 -115 0 -4 -23 -10 -50 -14 -29 -4 -59 -15 -70 -26 -11 -11
-22 -15 -25 -10 -10 17 -61 11 -79 -9 -9 -10 -37 -26 -61 -36 -25 -9 -45 -23
-45 -31 0 -18 -8 -18 -26 1 -22 22 -52 18 -79 -10 -44 -43 -29 -83 47 -121 55
-28 166 -48 209 -39 21 5 25 10 21 31 -2 14 -15 32 -28 41 -46 30 -26 41 28
15 55 -26 164 -44 210 -35 24 5 27 9 22 27 -3 11 -15 30 -25 42 -11 11 -19 24
-19 29 0 8 145 1 220 -11 32 -5 39 -10 35 -24 -3 -11 2 -21 17 -28 23 -11 23
-11 -3 -11 -42 -1 -50 -61 -9 -61 10 0 23 -6 29 -13 11 -14 74 -17 87 -4 5 4
7 23 6 42 -3 38 5 46 36 38 16 -4 22 -13 22 -33 0 -22 7 -30 33 -40 l32 -12
-65 -20 c-36 -11 -68 -25 -72 -32 -12 -18 -9 -56 5 -56 16 1 47 25 47 37 0 6
9 13 20 16 13 3 20 0 20 -9 0 -17 32 -18 48 -2 8 8 12 8 12 1 0 -6 9 -13 20
-16 15 -4 20 -1 18 11 -2 11 5 18 19 20 13 2 29 13 37 24 9 12 21 18 30 15 8
-3 17 1 20 9 3 9 20 14 46 14 38 0 54 -13 28 -23 -7 -3 1 -6 19 -6 25 -1 31 2
27 14 -7 17 11 21 21 5 3 -5 23 -10 44 -10 53 0 131 -25 224 -73 82 -42 121
-48 171 -26 16 6 9 8 -29 8 -68 -1 -68 -1 -90 16 -24 18 -115 85 -142 103 -15
10 -10 12 37 10 81 -2 108 8 102 38 -6 32 2 30 38 -6 23 -24 38 -30 70 -30 36
0 39 2 29 18 -6 10 -41 26 -78 37 -70 19 -105 38 -94 48 8 8 278 7 458 -2
l130 -6 -3 -28 c-7 -70 100 -154 200 -155 67 -2 99 35 63 72 -8 8 -15 19 -15
24 0 5 -7 16 -16 23 -15 12 -16 11 -10 -9 5 -13 3 -22 -3 -22 -6 0 -11 7 -11
15 0 8 -4 15 -10 15 -5 0 -10 -4 -10 -9 0 -5 -9 -7 -20 -4 -12 3 -20 0 -20 -6
0 -7 -5 -9 -11 -5 -8 4 -8 9 0 17 16 16 13 68 -5 88 -14 16 -14 18 5 24 12 3
21 10 21 15 0 10 -62 16 -285 30 -93 6 -190 12 -215 15 -25 2 -108 9 -185 15
-77 6 -153 15 -169 21 -50 16 -49 10 1 -29 26 -21 54 -46 62 -55 12 -15 10
-17 -16 -17 -16 0 -38 -7 -49 -15 -28 -22 -34 -18 -24 16 5 18 5 40 0 54 -18
47 -45 55 -211 60 -85 2 -165 7 -179 10 -14 3 -54 7 -90 10 -140 12 -150 15
-150 37 0 15 -3 18 -12 11 -20 -15 -58 -13 -58 2 0 7 16 19 36 27 l36 15 -34
20 c-31 18 -156 82 -368 188 -47 23 -134 64 -195 90 -60 26 -123 53 -140 61
-50 23 -177 64 -197 64 -15 0 -18 -5 -12 -22z m264 -358 c0 -5 -4 -10 -10 -10
-5 0 -10 5 -10 10 0 6 5 10 10 10 6 0 10 -4 10 -10z m1194 -313 c7 -6 6 -7 -4
-4 -8 2 -16 12 -17 23 -2 13 -1 15 4 4 3 -8 11 -19 17 -23z m-308 -145 c-7
-11 -53 -22 -61 -14 -5 6 57 31 64 26 1 -2 0 -7 -3 -12z m82 6 c-3 -7 -15 -13
-28 -13 -13 0 -25 6 -27 13 -3 8 6 12 27 12 21 0 30 -4 28 -12z m-198 -42 c0
-2 -7 -7 -16 -10 -8 -3 -12 -2 -9 4 6 10 25 14 25 6z"/>
<path d="M2300 4911 c0 -6 5 -13 10 -16 6 -3 10 1 10 9 0 9 -4 16 -10 16 -5 0
-10 -4 -10 -9z"/>
<path d="M2341 4894 c0 -11 3 -14 6 -6 3 7 2 16 -1 19 -3 4 -6 -2 -5 -13z"/>
<path d="M2370 4879 c0 -5 5 -7 10 -4 6 3 10 8 10 11 0 2 -4 4 -10 4 -5 0 -10
-5 -10 -11z"/>
<path d="M2785 4880 c3 -5 8 -10 11 -10 2 0 4 5 4 10 0 6 -5 10 -11 10 -5 0
-7 -4 -4 -10z"/>
<path d="M2407 4873 c-4 -3 -7 -11 -7 -17 0 -6 5 -5 12 2 6 6 9 14 7 17 -3 3
-9 2 -12 -2z"/>
<path d="M2430 4850 c0 -5 5 -10 10 -10 6 0 10 5 10 10 0 6 -4 10 -10 10 -5 0
-10 -4 -10 -10z"/>
<path d="M2460 4840 c0 -5 5 -10 10 -10 6 0 10 5 10 10 0 6 -4 10 -10 10 -5 0
-10 -4 -10 -10z"/>
<path d="M2490 4830 c0 -5 5 -10 10 -10 6 0 10 5 10 10 0 6 -4 10 -10 10 -5 0
-10 -4 -10 -10z"/>
<path d="M2526 4821 c-4 -7 -5 -15 -2 -18 9 -9 19 4 14 18 -4 11 -6 11 -12 0z"/>
<path d="M2550 4799 c0 -5 5 -7 10 -4 6 3 10 8 10 11 0 2 -4 4 -10 4 -5 0 -10
-5 -10 -11z"/>
<path d="M2638 4803 c7 -3 16 -2 19 1 4 3 -2 6 -13 5 -11 0 -14 -3 -6 -6z"/>
<path d="M2580 4790 c0 -5 5 -10 11 -10 5 0 7 5 4 10 -3 6 -8 10 -11 10 -2 0
-4 -4 -4 -10z"/>
<path d="M2650 4750 c0 -5 5 -10 10 -10 6 0 10 5 10 10 0 6 -4 10 -10 10 -5 0
-10 -4 -10 -10z"/>
<path d="M2701 4724 c0 -11 3 -14 6 -6 3 7 2 16 -1 19 -3 4 -6 -2 -5 -13z"/>
<path d="M2720 4710 c0 -5 5 -10 10 -10 6 0 10 5 10 10 0 6 -4 10 -10 10 -5 0
-10 -4 -10 -10z"/>
<path d="M2770 4692 c0 -5 7 -13 16 -16 22 -8 24 -8 24 6 0 6 -3 8 -7 5 -3 -4
-12 -2 -20 4 -8 7 -13 8 -13 1z"/>
<path d="M2820 4659 c0 -5 5 -7 10 -4 6 3 10 8 10 11 0 2 -4 4 -10 4 -5 0 -10
-5 -10 -11z"/>
<path d="M2845 4650 c-3 -5 -1 -10 4 -10 6 0 11 5 11 10 0 6 -2 10 -4 10 -3 0
-8 -4 -11 -10z"/>
<path d="M2870 4638 c0 -6 3 -9 6 -5 4 3 13 0 21 -8 17 -18 33 -19 33 -3 0 6
-3 9 -6 5 -4 -3 -13 0 -21 8 -17 18 -33 19 -33 3z"/>
<path d="M2970 4580 c0 -5 5 -10 10 -10 6 0 10 5 10 10 0 6 -4 10 -10 10 -5 0
-10 -4 -10 -10z"/>
<path d="M3000 4571 c0 -12 165 -101 187 -101 10 0 -13 16 -52 36 -38 20 -85
45 -102 55 -18 10 -33 14 -33 10z"/>
<path d="M3991 4422 c-24 -34 -19 -42 25 -42 28 0 35 5 40 25 7 29 7 30 -23
39 -16 5 -26 0 -42 -22z"/>
<path d="M4572 4279 c14 -44 28 -60 42 -51 6 4 106 5 222 4 180 -3 217 -1 250
13 34 15 37 18 19 25 -11 4 -54 6 -95 3 -68 -4 -369 19 -426 33 -23 6 -23 5
-12 -27z"/>
<path d="M3875 4101 c8 -17 13 -31 9 -31 -4 0 6 -10 21 -22 26 -20 29 -21 59
-4 33 18 137 31 305 41 109 6 145 14 73 16 -50 2 -74 3 -172 12 -41 4 -128 9
-193 13 l-118 6 16 -31z m313 -8 c-10 -2 -28 -2 -40 0 -13 2 -5 4 17 4 22 1
32 -1 23 -4z"/>
<path d="M3418 4103 c7 -3 16 -2 19 1 4 3 -2 6 -13 5 -11 0 -14 -3 -6 -6z"/>
<path d="M1030 4013 c0 -13 6 -23 14 -23 8 0 17 -8 19 -17 3 -10 5 0 6 22 1
34 -2 41 -19 41 -14 0 -20 -7 -20 -23z"/>
<path d="M1121 4005 c0 -35 1 -38 11 -20 12 19 12 19 19 -5 l7 -25 1 28 c1 17
-4 27 -13 27 -8 0 -17 8 -19 18 -3 9 -5 -1 -6 -23z"/>
<path d="M1329 4019 c-9 -17 -8 -32 2 -63 10 -33 14 -37 17 -18 4 24 22 31 22
7 0 -22 18 -18 25 6 5 14 13 19 26 16 15 -4 19 0 19 20 0 13 -4 21 -10 18 -5
-3 -10 -1 -10 4 0 6 5 11 10 11 6 0 10 5 10 10 0 6 -22 10 -50 10 -40 0 -51
-4 -61 -21z m29 -11 c-2 -6 -10 -13 -16 -14 -7 -1 -8 0 -2 3 5 2 8 9 4 14 -3
5 0 9 6 9 7 0 10 -5 8 -12z"/>
<path d="M1583 3978 c0 -35 2 -49 4 -33 9 72 11 75 51 73 l37 -1 -33 -4 c-25
-3 -32 -9 -30 -21 2 -9 12 -17 23 -17 14 0 21 -8 25 -30 4 -22 11 -30 27 -31
14 -1 20 3 16 12 -3 8 -1 14 5 14 5 0 12 20 14 45 l3 45 -57 0 c-31 0 -63 3
-71 6 -12 4 -14 -7 -14 -58z m127 -14 c0 -8 -5 -12 -10 -9 -6 4 -8 11 -5 16 9
14 15 11 15 -7z"/>
<path d="M3003 4029 c-18 -5 -35 -14 -39 -20 -4 -7 1 -9 15 -4 36 11 16 -23
-21 -38 -29 -11 -20 -24 12 -19 17 2 37 -1 45 -8 20 -17 52 -4 57 24 5 24 4
24 -33 11 -20 -8 -40 -11 -43 -8 -10 10 26 43 46 43 10 0 18 7 18 15 0 17 -10
17 -57 4z m47 -73 c0 -3 -4 -8 -10 -11 -5 -3 -10 -1 -10 4 0 6 5 11 10 11 6 0
10 -2 10 -4z"/>
<path d="M3321 4025 c-24 -8 -47 -19 -51 -25 -4 -7 -29 -15 -56 -18 -44 -5
-48 -3 -36 11 11 13 10 15 -7 10 -12 -3 -21 -1 -21 6 0 6 -8 3 -18 -6 -17 -17
-17 -18 13 -30 45 -17 81 -15 124 7 21 10 41 16 45 13 3 -3 11 -1 19 5 12 10
74 14 89 5 4 -2 -2 -13 -13 -24 -25 -25 -14 -41 25 -41 15 0 29 -4 32 -9 8
-13 58 -11 72 3 10 10 14 10 21 0 9 -15 99 -27 135 -18 22 5 25 10 16 25 -6
13 -17 17 -30 14 -12 -3 -20 0 -20 7 0 8 -8 10 -21 7 -13 -4 -26 1 -37 14 -18
20 -42 26 -42 9 0 -5 -10 -10 -22 -10 -12 0 -19 3 -15 6 5 5 -28 44 -38 44 -3
0 -5 -7 -5 -16 0 -17 -30 -12 -65 12 -24 17 -37 17 -94 -1z"/>
<path d="M3605 4031 c-11 -19 3 -28 52 -34 26 -3 56 -9 66 -12 10 -4 17 -3 17
4 0 6 -11 13 -25 17 -14 3 -25 10 -25 15 0 5 -10 8 -22 8 -13 -1 -30 1 -39 5
-10 4 -20 3 -24 -3z"/>
<path d="M3780 3994 c0 -9 72 -74 82 -74 17 0 7 18 -27 48 -32 30 -55 40 -55
26z"/>
<path d="M1033 3944 c0 -19 1 -33 4 -31 8 9 12 67 5 67 -4 0 -8 -16 -9 -36z"/>
<path d="M2883 3955 c-13 -12 -23 -25 -23 -28 0 -11 58 24 64 38 8 22 -16 16
-41 -10z"/>
<path d="M1620 3938 c0 -16 5 -22 21 -23 10 -1 15 4 12 15 -4 17 -33 24 -33 8z"/>
<path d="M1730 3908 c0 -9 -20 -13 -65 -13 -36 0 -65 4 -65 8 0 5 -8 6 -18 3
-10 -3 -78 -7 -151 -8 -73 -1 -135 -6 -138 -11 -3 -5 -2 -32 1 -61 l7 -53 52
-9 c29 -5 96 -8 150 -6 l97 3 0 53 0 54 38 3 c20 2 52 3 70 1 31 -3 32 -5 32
-47 0 -49 -8 -77 -20 -70 -4 3 -7 -9 -6 -26 1 -30 3 -31 54 -33 35 -2 52 1 52
9 0 6 11 22 25 35 21 20 40 25 108 31 45 3 78 7 72 9 -31 8 -74 8 -109 0 -23
-5 -45 -5 -51 0 -5 4 -14 8 -20 8 -5 0 -13 19 -17 42 -11 61 -32 90 -68 90
-17 0 -30 -5 -30 -12z m120 -147 c0 -12 -26 -32 -33 -25 -9 10 4 34 19 34 8 0
14 -4 14 -9z"/>
<path d="M928 3903 c6 -2 18 -2 25 0 6 3 1 5 -13 5 -14 0 -19 -2 -12 -5z"/>
<path d="M1043 3902 c-22 -3 -33 -22 -14 -22 5 0 16 -3 24 -6 8 -3 17 2 20 10
7 19 -1 23 -30 18z"/>
<path d="M2447 3868 c-11 -83 -12 -83 -48 -83 -19 0 -39 -3 -45 -7 -7 -5 -23
-2 -37 5 -13 7 -37 12 -53 11 -16 0 -44 -2 -61 -2 -19 -1 -33 -7 -33 -14 0 -9
-15 -13 -43 -13 -24 0 -55 -3 -68 -6 -20 -6 -17 -7 14 -8 l37 -1 0 -65 0 -65
-64 0 c-35 0 -71 -3 -79 -6 -12 -4 -14 0 -10 18 6 22 5 22 -14 6 -11 -10 -26
-18 -33 -18 -8 0 1 -12 18 -26 19 -17 32 -36 32 -50 0 -22 4 -24 45 -24 44 0
60 -15 30 -26 -8 -4 -113 1 -233 10 -437 34 -492 36 -767 37 -294 1 -465 -10
-578 -37 l-68 -16 27 -35 c33 -44 26 -61 -27 -65 l-41 -3 110 -82 c102 -77
166 -112 111 -60 -29 26 -93 117 -87 123 3 2 35 -16 73 -41 37 -25 72 -45 76
-45 5 0 26 -16 46 -35 20 -19 41 -35 46 -35 4 0 19 -12 32 -26 14 -15 25 -22
25 -16 0 7 8 6 24 -1 27 -13 41 -46 26 -61 -6 -6 -10 -18 -10 -28 0 -14 8 -18
36 -18 21 0 33 -4 29 -10 -3 -6 5 -10 19 -10 34 0 61 -27 45 -46 -6 -8 -19
-14 -28 -14 -14 1 -14 2 2 11 19 11 14 29 -9 29 -11 0 -13 -8 -9 -32 7 -38 13
-48 28 -48 7 -1 19 -16 28 -34 18 -38 4 -43 -31 -11 -21 19 -21 19 -26 -2 -4
-13 -17 -23 -35 -27 -17 -3 -29 -12 -29 -21 0 -8 -4 -15 -10 -15 -5 0 -10 -7
-10 -16 0 -10 6 -14 14 -11 9 4 17 -8 26 -36 6 -23 17 -48 24 -56 8 -12 8 -13
-1 -7 -8 4 -13 2 -13 -6 0 -25 17 -39 53 -45 41 -6 41 -6 28 66 -10 52 -1 84
35 122 l24 26 -25 27 c-14 16 -24 33 -22 39 2 7 12 -1 21 -16 10 -15 23 -27
28 -27 11 0 6 49 -7 83 -4 10 -4 17 1 16 45 -8 48 37 4 54 -28 11 -50 37 -31
37 5 0 11 -5 13 -12 5 -13 28 -2 28 13 0 5 -10 14 -22 19 -22 8 -22 9 5 9 34
1 41 -14 57 -126 13 -89 10 -116 -15 -107 -8 3 -15 1 -15 -5 0 -6 10 -11 23
-11 12 0 33 -9 47 -20 25 -19 25 -19 5 -35 -11 -9 -30 -20 -42 -25 -13 -5 -23
-17 -23 -27 -1 -10 -3 -42 -6 -70 -4 -51 -3 -53 22 -53 15 0 23 -4 19 -10 -7
-11 1065 -11 1260 -1 l100 6 2 75 c2 64 7 94 28 165 2 6 4 -12 5 -40 1 -27 4
-42 7 -32 4 16 9 14 36 -13 22 -22 33 -27 39 -18 6 10 8 9 8 -3 0 -18 49 -28
121 -25 49 2 119 36 119 59 0 10 5 15 10 12 6 -4 17 9 24 27 14 31 13 33 -7
40 -12 3 -91 6 -175 7 -136 1 -157 3 -181 21 -19 13 -27 27 -25 42 1 13 3 33
3 46 1 21 5 22 80 22 l79 0 4 58 c3 35 -1 68 -9 84 -7 15 -13 36 -13 47 0 11
-5 32 -11 48 -8 22 -12 25 -21 13 -7 -12 -8 -10 -2 5 4 11 10 45 12 75 4 47 2
53 -11 42 -11 -9 -32 -84 -27 -100 0 -1 -7 -16 -15 -32 -9 -17 -13 -34 -10
-39 2 -5 2 -23 -1 -40 -6 -27 -8 -28 -21 -15 -14 13 -17 13 -29 -3 -13 -16
-14 -12 -12 36 1 36 -2 56 -10 59 -9 3 -11 -4 -7 -21 4 -14 2 -34 -4 -44 -9
-16 -11 -14 -12 12 -1 17 -2 38 -1 48 1 9 -3 17 -8 17 -6 0 -10 6 -10 14 0 18
-17 29 -30 21 -7 -4 -3 -14 10 -25 20 -17 29 -47 10 -35 -5 3 -10 -1 -10 -9 0
-9 -3 -16 -8 -16 -13 0 -61 114 -72 169 -5 29 -12 57 -15 62 -4 5 1 9 9 9 12
0 16 -11 16 -50 0 -47 2 -50 25 -50 14 0 28 -7 31 -15 8 -19 23 -10 34 20 6
17 18 25 41 27 32 3 49 31 28 44 -21 13 -6 22 29 17 46 -7 46 -7 32 -32 -7
-14 -8 -27 -1 -38 7 -14 11 -9 21 27 7 25 16 50 20 55 4 6 7 48 6 95 -1 81 -2
84 -26 91 -16 4 -19 7 -7 8 14 1 17 10 17 49 0 27 3 52 7 56 11 10 13 96 3 96
-5 0 -7 7 -4 15 4 8 13 15 22 15 13 0 12 3 -4 15 -11 8 -41 15 -70 15 l-51 0
-6 -42z m-4 -175 c1 -24 6 -40 16 -45 11 -5 8 -7 -10 -7 -22 -1 -25 3 -27 39
-3 40 5 67 15 56 3 -3 6 -22 6 -43z m-148 -81 c-4 -9 -10 -25 -12 -34 -3 -10
-9 -18 -14 -18 -5 0 -9 -8 -9 -17 0 -9 -8 -25 -17 -36 -10 -11 -12 -17 -5 -13
10 6 13 1 11 -20 -2 -32 7 -80 21 -106 9 -16 8 -16 -20 0 -26 15 -30 22 -30
63 0 51 -9 60 -50 49 -20 -5 -25 -13 -27 -40 -1 -19 -2 -41 -2 -47 -1 -8 -14
-13 -31 -13 -28 0 -30 2 -30 40 0 22 5 40 10 40 6 0 10 7 10 15 0 10 10 15 28
16 31 1 77 17 51 18 -12 1 -15 12 -15 52 1 27 7 53 13 57 7 4 37 9 69 10 50 2
55 0 49 -16z m20 -29 c-7 -21 -11 -52 -8 -69 6 -38 -11 -53 -27 -24 -9 16 -8
28 4 52 9 17 16 36 16 43 0 9 19 35 26 35 1 0 -4 -17 -11 -37z m-1627 -91 c2
-7 -6 -12 -17 -12 -21 0 -27 11 -14 24 9 9 26 2 31 -12z m-55 -7 c-3 -13 -53
-20 -53 -7 0 15 13 23 35 20 11 -2 19 -7 18 -13z m902 0 c0 -5 -17 -10 -37
-11 -37 -1 -46 5 -31 20 11 10 68 3 68 -9z m145 -10 c0 -11 -13 -14 -60 -12
-40 1 -60 6 -60 15 0 8 19 12 60 12 46 0 60 -3 60 -15z m-1210 -4 c0 -14 -18
-23 -30 -16 -6 4 -8 11 -5 16 8 12 35 12 35 0z m1522 -11 c10 0 16 -4 13 -10
-3 -5 -31 -10 -62 -10 -49 0 -54 2 -42 16 9 11 22 14 42 10 16 -3 38 -6 49 -6z
m352 -55 c-4 -8 -8 -15 -10 -15 -2 0 -4 7 -4 15 0 8 4 15 10 15 5 0 7 -7 4
-15z m-1520 -173 c3 -5 -9 -17 -26 -27 l-31 -18 19 26 c20 28 29 32 38 19z
m1723 -64 c-3 -7 -5 -2 -5 12 0 14 2 19 5 13 2 -7 2 -19 0 -25z m-1600 -114
c-9 -9 -28 6 -21 18 4 6 10 6 17 -1 6 -6 8 -13 4 -17z m43 -35 c0 -14 -17 -10
-23 5 -4 10 -1 13 9 9 7 -3 14 -9 14 -14z m320 -369 c0 -5 -2 -10 -4 -10 -3 0
-8 5 -11 10 -3 6 -1 10 4 10 6 0 11 -4 11 -10z"/>
<path d="M2865 3900 c-3 -5 -1 -10 4 -10 6 0 11 5 11 10 0 6 -2 10 -4 10 -3 0
-8 -4 -11 -10z"/>
<path d="M1110 3885 c0 -8 9 -15 20 -15 11 0 20 7 20 15 0 8 -9 15 -20 15 -11
0 -20 -7 -20 -15z"/>
<path d="M2762 3870 c0 -19 2 -27 5 -17 2 9 2 25 0 35 -3 9 -5 1 -5 -18z"/>
<path d="M2944 3875 c-25 -19 -14 -19 22 0 16 8 22 15 13 15 -8 0 -24 -7 -35
-15z"/>
<path d="M2882 3868 c5 -15 28 -23 28 -10 0 5 -7 13 -16 16 -10 4 -14 1 -12
-6z"/>
<path d="M1230 3850 c0 -13 5 -18 15 -14 8 4 15 1 15 -5 0 -7 -7 -14 -15 -17
-8 -4 -15 -17 -15 -31 0 -20 4 -24 23 -21 12 2 22 9 21 16 -1 6 -2 30 -2 52
-2 33 -6 40 -22 40 -13 0 -20 -7 -20 -20z"/>
<path d="M3710 3860 c0 -5 12 -24 28 -42 15 -18 35 -49 46 -68 10 -19 29 -45
42 -58 13 -13 24 -28 24 -35 0 -16 37 -39 45 -28 8 14 65 6 76 -10 8 -12 10
-12 19 1 8 12 10 11 10 -7 0 -13 5 -23 10 -23 14 0 12 22 -6 65 -10 24 -20 35
-29 31 -39 -15 -97 -26 -105 -21 -6 3 -10 15 -10 25 0 10 -16 35 -35 56 -19
20 -35 39 -35 41 0 2 -11 19 -26 38 -25 34 -54 52 -54 35z"/>
<path d="M730 3811 l0 -48 50 -7 c43 -6 53 -11 62 -34 11 -26 12 -26 15 -4 3
12 9 22 14 22 13 0 11 -37 -2 -45 -6 -4 -8 -13 -5 -20 3 -9 -5 -15 -27 -18
-18 -2 23 -5 91 -5 l122 -2 0 55 c0 30 -3 54 -7 54 -21 -3 -33 2 -33 16 0 12
-13 15 -55 15 -30 0 -55 5 -55 10 0 6 -5 10 -11 10 -5 0 -8 -4 -5 -8 12 -20
-12 -33 -53 -26 -35 6 -46 13 -64 45 -12 21 -25 39 -29 39 -5 0 -8 -22 -8 -49z
m243 -48 c-7 -2 -19 -2 -25 0 -7 3 -2 5 12 5 14 0 19 -2 13 -5z"/>
<path d="M2585 3850 c3 -5 8 -10 11 -10 2 0 4 5 4 10 0 6 -5 10 -11 10 -5 0
-7 -4 -4 -10z"/>
<path d="M3035 3840 c-3 -5 -1 -10 4 -10 6 0 11 5 11 10 0 6 -2 10 -4 10 -3 0
-8 -4 -11 -10z"/>
<path d="M3887 3829 c4 -13 26 -30 59 -46 51 -24 61 -38 55 -76 -1 -4 5 -18
14 -30 8 -12 15 -34 15 -49 0 -33 26 -51 53 -36 23 12 48 -9 53 -44 2 -13 5
-32 6 -43 2 -11 12 -29 24 -40 17 -17 19 -27 13 -65 -5 -37 -7 -41 -14 -23 -4
13 -12 20 -17 17 -6 -4 -7 2 -3 17 5 17 4 21 -4 14 -6 -6 -13 -27 -15 -48 -3
-21 -8 -42 -11 -46 -3 -5 1 -12 7 -15 10 -5 10 -7 1 -12 -15 -7 -17 -40 -3
-49 6 -3 10 0 10 8 0 13 39 32 47 23 8 -7 -21 -55 -29 -50 -5 3 -8 0 -7 -7 7
-37 -34 -179 -51 -179 -4 0 -6 14 -5 30 1 19 -3 30 -12 30 -7 0 -13 -7 -13
-15 0 -8 -7 -15 -16 -15 -13 0 -14 3 -5 13 6 8 8 17 4 20 -3 4 2 7 13 7 15 0
16 2 5 9 -11 7 -12 17 -2 54 6 25 11 53 11 62 0 27 -18 7 -26 -27 -3 -18 -13
-42 -21 -54 l-14 -22 -41 20 c-29 14 -43 17 -51 9 -8 -8 -4 -11 13 -11 13 0
31 -7 41 -16 9 -8 26 -16 38 -17 11 -1 21 -8 21 -16 0 -12 -3 -12 -12 -3 -21
21 -28 14 -62 -58 -18 -38 -36 -66 -40 -63 -3 4 -6 1 -6 -6 0 -7 7 -11 15 -8
28 11 24 -10 -6 -32 -30 -23 -31 -23 -52 -3 -12 10 -31 22 -42 27 -13 5 -15 9
-7 12 6 3 12 9 12 14 0 6 -8 6 -19 -1 -11 -5 -40 -7 -64 -4 -43 6 -45 8 -35
30 13 28 28 32 21 5 -3 -12 2 -20 16 -24 23 -6 46 12 56 43 3 11 12 20 18 20
15 -1 76 -16 102 -25 17 -7 18 -6 7 6 -7 8 -27 19 -45 25 -18 7 -31 17 -29 24
1 7 -3 18 -9 26 -7 8 -7 14 -2 14 6 0 16 20 23 46 8 29 17 43 26 40 7 -3 20 6
29 20 13 20 14 28 4 40 -11 13 -14 11 -25 -13 l-13 -28 5 28 c4 16 2 27 -5 27
-6 0 -11 -6 -11 -12 0 -9 -2 -10 -8 -2 -4 7 -16 14 -27 17 -21 5 -22 5 45 11
15 1 28 52 29 113 1 26 -2 30 -19 26 -14 -4 -20 0 -20 11 0 9 8 16 20 16 14 0
20 7 20 23 -1 20 -2 20 -11 5 -5 -10 -17 -18 -24 -18 -8 0 -15 -4 -15 -9 0 -5
-9 -11 -20 -14 -11 -3 -20 -13 -20 -22 0 -11 -5 -15 -15 -11 -19 7 -19 -11 0
-31 8 -8 13 -18 10 -23 -3 -4 -7 -32 -10 -61 -5 -52 -33 -99 -60 -99 -21 0
-46 -35 -34 -47 18 -18 2 -30 -31 -25 -21 3 -30 9 -26 18 3 8 1 14 -3 14 -5 0
-11 -7 -15 -15 -6 -17 -56 -21 -56 -5 0 6 5 10 12 10 6 0 4 8 -6 19 -21 23 -7
36 29 27 13 -3 27 -2 30 4 4 6 -6 10 -24 10 -24 0 -31 4 -31 20 0 25 -28 26
-46 3 -7 -10 -14 -13 -14 -6 0 6 4 14 10 18 15 9 -11 55 -32 55 -21 0 -23 11
-6 28 8 8 1 13 -33 19 l-44 7 40 12 c38 12 39 13 10 14 -37 1 -65 21 -65 46 0
21 -35 48 -50 39 -13 -8 -13 31 0 55 16 30 -7 60 -41 53 -21 -4 -28 -1 -31 13
-3 15 -11 18 -48 15 -25 -1 -49 -7 -55 -11 -5 -5 -32 -9 -60 -11 -52 -2 -117
26 -129 56 -7 20 -46 19 -46 0 0 -8 5 -15 10 -15 6 0 4 -12 -4 -29 -22 -43 -5
-52 119 -66 151 -18 150 -17 149 -50 -1 -16 -3 -82 -5 -145 l-4 -115 60 -3
c33 -2 63 -9 67 -15 4 -7 8 -79 8 -161 l0 -149 -112 6 c-62 4 -144 7 -181 7
l-68 0 2 163 1 162 -23 3 c-24 4 -160 -15 -187 -26 -13 -5 -14 13 -9 122 l6
128 -33 35 -33 36 0 -32 c0 -22 4 -30 13 -27 7 3 18 -2 24 -10 10 -12 8 -14
-16 -15 -16 -1 -33 -1 -38 0 -5 1 -4 -4 2 -12 9 -11 7 -18 -9 -35 -19 -21 -19
-22 -1 -22 28 0 33 -10 17 -39 -43 -81 -38 -131 15 -131 l30 0 -5 -72 c-3 -40
-8 -85 -10 -101 -3 -19 1 -31 15 -39 13 -9 20 -23 19 -43 -1 -23 -3 -25 -6 -7
-3 15 -11 22 -26 21 -12 0 -16 -3 -9 -6 14 -6 16 -33 2 -33 -5 0 -10 -4 -10
-10 0 -6 28 -10 64 -10 72 0 79 -7 66 -63 -4 -20 -8 -91 -9 -158 -1 -68 -4
-126 -6 -130 -3 -4 2 -10 11 -13 23 -9 371 -6 424 3 38 7 31 9 -49 10 l-94 1
6 68 c4 37 7 111 7 165 l0 97 28 0 c15 -1 45 -9 67 -20 46 -22 62 -24 67 -10
2 6 21 13 42 17 l39 6 -4 -154 -4 -154 43 0 c297 4 385 6 381 9 -3 3 -57 6
-122 8 -64 1 -117 5 -117 9 0 11 85 19 261 25 146 5 167 4 179 -11 26 -32 66
-43 173 -49 60 -3 117 -10 127 -16 25 -13 39 -13 20 1 -11 8 -6 9 22 4 44 -7
54 5 29 36 -14 17 -17 29 -10 46 8 21 6 23 -26 23 -27 0 -35 4 -35 19 0 10 -9
30 -21 45 -18 23 -18 27 -5 32 9 3 16 12 16 20 0 8 10 14 26 14 25 0 26 -1 20
-45 l-7 -45 30 0 31 0 0 69 c0 39 4 72 9 75 5 3 43 3 84 0 l76 -7 -1 -139 c-1
-144 6 -172 35 -144 12 13 21 14 43 6 26 -10 217 -28 364 -34 63 -3 194 -13
275 -21 22 -2 99 -9 170 -15 118 -9 131 -9 143 7 11 16 12 16 12 0 0 -15 13
-17 110 -17 104 0 110 1 110 20 0 13 -10 24 -25 30 -18 7 -23 14 -18 26 5 14
2 16 -15 12 -21 -6 -21 -5 -5 25 11 22 12 32 4 35 -6 2 -11 12 -11 22 0 18 -3
18 -42 7 -69 -21 -75 -16 -77 60 l-1 65 27 -7 c16 -5 38 -8 50 -9 12 -1 25 -4
29 -8 4 -5 25 -8 46 -8 22 0 37 -3 35 -7 -3 -5 -2 -16 2 -25 4 -12 10 -15 20
-8 12 7 12 12 3 23 -10 12 -9 16 4 21 34 13 40 6 42 -46 3 -77 18 -108 52
-108 15 0 33 7 40 15 7 8 9 15 5 15 -4 0 -2 6 4 14 7 8 8 17 3 20 -4 2 -7 31
-6 63 1 43 6 59 17 61 20 4 47 62 47 99 0 29 -15 61 -24 52 -4 -4 -13 -72 -15
-116 -1 -7 -8 -13 -17 -13 -8 0 -12 5 -9 10 4 6 -6 10 -22 11 -15 0 -21 3 -13
6 8 2 21 7 29 9 31 10 -7 25 -47 18 -45 -7 -59 -33 -19 -35 20 -1 20 -2 2 -6
-46 -11 -39 -25 10 -19 46 5 45 4 -14 -9 -35 -8 -66 -13 -69 -11 -2 3 -6 37
-8 77 -2 40 -6 75 -9 77 -13 13 -15 -11 -7 -79 5 -41 9 -75 7 -76 -1 -2 -16
-6 -33 -9 -29 -6 -32 -4 -33 17 0 13 -3 18 -6 12 -6 -15 -69 -17 -78 -3 -3 6
-1 10 4 10 6 0 11 7 11 17 0 27 33 93 47 93 7 0 13 -4 13 -10 0 -5 4 -10 9
-10 5 0 7 17 5 38 -3 20 -6 87 -9 147 l-4 110 -38 -4 c-21 -1 -41 -8 -45 -15
-5 -7 -8 -5 -8 6 0 12 -7 15 -27 13 -16 -2 -34 2 -40 7 -7 6 -28 7 -48 4 l-34
-7 -3 -101 c-2 -70 -7 -103 -15 -106 -9 -2 -13 10 -13 42 0 25 -4 46 -10 46
-12 0 -30 -34 -30 -58 0 -15 -5 -19 -19 -15 -22 6 -38 80 -21 97 5 5 10 29 10
52 0 37 -3 43 -30 54 -17 7 -33 10 -37 7 -3 -4 -14 -2 -23 3 -13 7 -20 6 -24
-5 -3 -8 -1 -15 4 -15 6 0 11 -17 11 -37 2 -31 3 -33 6 -10 7 43 19 23 15 -23
-3 -29 -7 -38 -13 -29 -7 11 -9 9 -9 -7 0 -27 -26 -51 -33 -32 -4 10 -6 10 -6
0 -1 -20 30 -27 41 -9 11 21 48 22 48 2 0 -8 5 -15 10 -15 6 0 10 -9 10 -20 0
-11 -7 -20 -15 -20 -9 0 -14 8 -12 21 1 12 -4 24 -10 26 -8 3 -13 -4 -13 -17
0 -19 -4 -21 -30 -15 -17 4 -30 2 -30 -3 0 -5 -11 -12 -25 -14 l-25 -5 1 121
c0 66 6 164 13 216 7 52 13 95 12 96 -1 1 -237 9 -526 19 -289 10 -530 22
-536 27 -7 5 -15 29 -19 53 -3 25 -11 45 -17 45 -5 0 -8 7 -4 15 3 8 1 14 -5
12 -6 -1 -17 18 -26 42 -8 25 -28 58 -44 73 -16 16 -29 34 -29 39 0 5 -16 15
-36 24 -19 8 -56 28 -80 45 -53 36 -54 36 -47 9z m143 -89 c0 -5 -4 -10 -10
-10 -5 0 -10 5 -10 10 0 6 5 10 10 10 6 0 10 -4 10 -10z m20 -29 c0 -4 11 -20
25 -35 35 -38 33 -63 -5 -62 -27 1 -45 16 -19 16 6 0 1 16 -11 35 -20 33 -20
55 1 55 5 0 9 -4 9 -9z m-773 -198 c-3 -10 -5 -2 -5 17 0 19 2 27 5 18 2 -10
2 -26 0 -35z m620 -143 c-5 -47 -14 -61 -27 -40 -13 20 -12 33 0 25 6 -3 10
-1 10 4 0 6 -5 11 -10 11 -6 0 -5 8 2 20 20 31 29 24 25 -20z m-427 -44 c0 -9
-7 -12 -21 -9 -16 4 -17 8 -7 14 19 13 28 11 28 -5z m30 -36 c0 -5 -2 -10 -4
-10 -3 0 -8 5 -11 10 -3 6 -1 10 4 10 6 0 11 -4 11 -10z m37 -16 c-3 -3 -12
-4 -19 -1 -8 3 -5 6 6 6 11 1 17 -2 13 -5z m330 -36 c-3 -8 -6 -5 -6 6 -1 11
2 17 5 13 3 -3 4 -12 1 -19z m-307 -38 c0 -5 -2 -10 -4 -10 -3 0 -8 5 -11 10
-3 6 -1 10 4 10 6 0 11 -4 11 -10z m1830 -15 c0 -8 -4 -15 -10 -15 -5 0 -10 7
-10 15 0 8 5 15 10 15 6 0 10 -7 10 -15z m180 5 c0 -5 -4 -10 -10 -10 -5 0
-10 5 -10 10 0 6 5 10 10 10 6 0 10 -4 10 -10z m-1809 -57 c-9 -16 -10 -15
-11 8 0 14 3 29 8 33 12 12 14 -22 3 -41z m1842 27 c27 0 29 -2 17 -14 -19
-17 -70 -30 -70 -17 0 5 -3 17 -7 27 -5 14 -3 16 11 11 10 -4 32 -7 49 -7z
m104 -31 c-3 -11 3 -37 14 -59 10 -21 19 -47 18 -57 0 -11 -3 -13 -6 -5 -9 22
-33 13 -33 -13 0 -14 -3 -25 -8 -25 -4 0 -6 37 -5 83 1 45 3 88 3 95 0 7 5 10
11 6 6 -3 9 -15 6 -25z m38 21 c3 -5 -1 -10 -10 -10 -9 0 -13 5 -10 10 3 6 8
10 10 10 2 0 7 -4 10 -10z m-355 -19 c0 -5 -7 -14 -15 -21 -12 -10 -15 -10
-15 2 0 8 3 18 7 21 9 10 23 9 23 -2z m-1805 -11 c3 -5 1 -10 -4 -10 -6 0 -11
5 -11 10 0 6 2 10 4 10 3 0 8 -4 11 -10z m100 1 c3 -6 -1 -13 -8 -18 -7 -4
-16 -16 -20 -25 -4 -13 -15 -17 -37 -14 -17 2 -34 7 -38 11 -4 4 0 6 8 5 32
-4 62 12 57 31 -4 14 0 19 13 19 11 0 21 -4 25 -9z m2065 5 c0 -11 -19 -15
-25 -6 -3 5 1 10 9 10 9 0 16 -2 16 -4z m-183 -70 c8 -25 7 -38 -1 -46 -8 -9
-5 -11 14 -5 39 11 44 11 47 -5 3 -12 -5 -14 -42 -12 l-45 4 0 49 c0 57 12 64
27 15z m-2692 -38 c-10 -72 -24 -96 -25 -40 0 26 -4 41 -10 37 -5 -3 -10 2
-10 12 0 15 19 31 48 42 2 0 1 -23 -3 -51z m765 27 c0 -2 -10 -10 -22 -16 -21
-11 -22 -11 -9 4 13 16 31 23 31 12z m400 -4 c0 -6 -4 -13 -10 -16 -5 -3 -10
-17 -10 -29 0 -15 -7 -26 -21 -29 -11 -3 -19 -2 -17 1 2 4 12 24 21 45 16 34
37 50 37 28z m30 -35 c0 -2 -7 -9 -15 -16 -13 -11 -14 -10 -9 4 5 14 24 23 24
12z m-303 -52 c-3 -3 -12 -4 -19 -1 -8 3 -5 6 6 6 11 1 17 -2 13 -5z m60 -15
c34 -13 45 -29 31 -46 -12 -15 3 -18 18 -4 26 26 89 52 111 47 30 -8 29 -14
-8 -54 -26 -28 -37 -33 -61 -28 -23 5 -34 0 -57 -26 -24 -27 -27 -36 -20 -67
7 -32 6 -34 -6 -17 -12 16 -26 19 -80 17 -52 -1 -65 1 -59 11 5 10 4 11 -7 1
-7 -7 -24 -13 -39 -13 -24 0 -24 1 9 21 18 11 35 18 38 15 3 -2 12 2 21 10 10
7 26 20 37 28 16 12 18 18 9 33 -10 16 -8 19 15 18 20 0 26 5 27 23 1 12 -3
22 -7 22 -5 0 -9 -8 -9 -17 0 -15 -2 -15 -9 -4 -10 15 -4 41 9 41 5 0 21 -5
37 -11z m93 -109 c0 -3 -13 -14 -30 -23 -23 -14 -30 -15 -30 -5 0 20 20 37 41
35 11 -1 19 -4 19 -7z m783 -6 c26 -3 47 -10 47 -14 0 -4 -23 -10 -50 -14 -28
-4 -57 -9 -65 -12 -11 -5 -15 2 -15 26 0 25 3 30 18 26 9 -3 38 -8 65 -12z
m532 -14 c4 -6 -6 -10 -22 -10 -22 0 -25 2 -13 10 19 12 27 12 35 0z m-1097
-32 c10 -27 9 -35 -3 -47 -13 -14 -15 -13 -15 1 0 8 -7 21 -15 28 -11 9 -12
17 -4 31 14 27 23 24 37 -13z m1185 25 c-13 -2 -33 -2 -45 0 -13 2 -3 4 22 4
25 0 35 -2 23 -4z m135 -10 c-10 -2 -28 -2 -40 0 -13 2 -5 4 17 4 22 1 32 -1
23 -4z m-1900 -72 c-19 -25 -48 -41 -48 -27 0 2 -3 12 -6 20 -4 11 -2 15 8 11
8 -3 21 1 28 10 7 8 19 15 27 15 11 0 8 -8 -9 -29z m77 19 c3 -5 1 -10 -4 -10
-6 0 -11 5 -11 10 0 6 2 10 4 10 3 0 8 -4 11 -10z m73 -15 c2 -15 1 -17 -6 -6
-6 8 -19 12 -32 8 -18 -5 -19 -3 -9 9 16 20 43 13 47 -11z m95 14 c-4 -4 -21
-8 -38 -9 -41 -3 -47 -1 -41 9 3 4 24 8 46 8 23 0 38 -3 33 -8z m-323 -16 c0
-5 -4 -15 -10 -23 -11 -18 -25 -7 -17 15 6 15 27 21 27 8z m120 -3 c0 -5 -5
-10 -11 -10 -5 0 -7 5 -4 10 3 6 8 10 11 10 2 0 4 -4 4 -10z m-160 -15 c0 -8
-4 -15 -10 -15 -5 0 -10 7 -10 15 0 8 5 15 10 15 6 0 10 -7 10 -15z m1942
-118 c3 -18 8 -40 12 -49 7 -16 1 -17 -71 -12 -43 3 -102 10 -132 15 -30 5
-70 9 -88 9 -18 0 -33 4 -33 10 0 5 -11 12 -25 16 -42 10 -18 22 27 13 24 -4
94 -11 156 -15 l112 -7 0 25 c0 49 35 45 42 -5z m-1242 17 c0 -8 -5 -12 -10
-9 -6 4 -8 11 -5 16 9 14 15 11 15 -7z m1520 -14 c0 -16 -4 -30 -10 -30 -5 0
-10 3 -10 8 0 4 -3 17 -6 30 -5 16 -2 22 10 22 11 0 16 -9 16 -30z"/>
<path d="M3812 2850 c-13 -11 -18 -21 -12 -25 5 -3 10 -1 10 5 0 6 4 9 9 5 6
-3 15 4 21 15 13 25 2 25 -28 0z"/>
<path d="M890 3830 c0 -5 5 -10 11 -10 5 0 7 5 4 10 -3 6 -8 10 -11 10 -2 0
-4 -4 -4 -10z"/>
<path d="M927 3833 c-4 -3 -7 -11 -7 -17 0 -6 5 -5 12 2 6 6 9 14 7 17 -3 3
-9 2 -12 -2z"/>
<path d="M975 3830 c-19 -8 -19 -9 3 -9 12 -1 22 4 22 9 0 6 -1 10 -2 9 -2 0
-12 -4 -23 -9z"/>
<path d="M2647 3824 c3 -8 9 -14 13 -14 12 0 -7 -73 -23 -85 -9 -7 -11 -20 -6
-43 3 -18 3 -35 -2 -38 -5 -2 -8 -20 -7 -38 1 -18 -2 -38 -6 -44 -4 -7 -2 -12
4 -12 13 0 20 16 24 56 2 16 4 32 5 35 0 4 9 6 19 5 13 -1 16 5 14 27 -3 22 1
30 17 34 17 4 19 8 10 19 -6 7 -8 18 -5 23 12 19 -5 56 -34 73 -23 13 -28 13
-23 2z"/>
<path d="M1171 3784 c0 -11 3 -14 6 -6 3 7 2 16 -1 19 -3 4 -6 -2 -5 -13z"/>
<path d="M2992 3768 c-1 -26 1 -30 9 -15 6 10 6 23 1 33 -7 12 -9 8 -10 -18z"/>
<path d="M600 3750 c0 -5 5 -10 11 -10 5 0 7 5 4 10 -3 6 -8 10 -11 10 -2 0
-4 -4 -4 -10z"/>
<path d="M656 3745 c-3 -8 -2 -15 3 -15 5 0 14 7 21 15 10 12 10 15 -3 15 -8
0 -17 -7 -21 -15z"/>
<path d="M2740 3750 c0 -5 5 -10 10 -10 6 0 10 5 10 10 0 6 -4 10 -10 10 -5 0
-10 -4 -10 -10z"/>
<path d="M1382 3675 c0 -16 2 -22 5 -12 2 9 2 23 0 30 -3 6 -5 -1 -5 -18z"/>
<path d="M1738 3683 c-25 -6 -23 -33 2 -33 13 0 20 7 20 20 0 11 -1 19 -2 19
-2 -1 -11 -3 -20 -6z"/>
<path d="M1773 3665 c-3 -9 -3 -18 0 -21 6 -7 47 18 47 28 0 15 -41 8 -47 -7z"/>
<path d="M470 3650 c0 -5 25 -10 55 -10 30 0 55 5 55 10 0 6 -25 10 -55 10
-30 0 -55 -4 -55 -10z"/>
<path d="M1829 3628 c4 -13 6 -29 4 -35 -6 -18 16 -16 23 1 6 17 -12 56 -26
56 -6 0 -6 -9 -1 -22z"/>
<path d="M2700 3629 c0 -18 2 -19 15 -9 15 12 12 30 -6 30 -5 0 -9 -10 -9 -21z"/>
<path d="M2584 3580 c0 -11 4 -20 8 -20 4 0 8 9 8 20 0 11 -4 20 -8 20 -4 0
-8 -9 -8 -20z"/>
<path d="M2683 3586 c-13 -6 -23 -19 -23 -28 0 -22 18 -24 27 -2 3 8 12 13 19
10 8 -3 14 1 14 9 0 20 -11 23 -37 11z"/>
<path d="M1041 3574 c0 -11 3 -14 6 -6 3 7 2 16 -1 19 -3 4 -6 -2 -5 -13z"/>
<path d="M2918 3585 c-5 -5 -34 -11 -70 -14 -5 -1 -8 -5 -8 -10 0 -8 90 -3 99
5 3 3 0 9 -5 14 -6 6 -13 8 -16 5z"/>
<path d="M3970 3570 c6 -11 9 -24 6 -28 -2 -4 4 -19 15 -32 20 -26 20 -25 23
37 0 18 -1 33 -4 34 -3 0 -15 2 -28 5 -20 3 -21 2 -12 -16z"/>
<path d="M4047 3563 c-3 -4 1 -17 9 -28 10 -13 14 -15 14 -4 0 20 -16 43 -23
32z"/>
<path d="M3930 3540 c0 -5 7 -10 16 -10 8 0 12 5 9 10 -3 6 -10 10 -16 10 -5
0 -9 -4 -9 -10z"/>
<path d="M2594 3529 c-3 -6 -1 -16 5 -22 8 -8 11 -5 11 11 0 24 -5 28 -16 11z"/>
<path d="M4088 3500 c-3 -19 -1 -29 6 -27 15 5 20 37 8 49 -6 6 -11 -1 -14
-22z"/>
<path d="M2628 3503 c-10 -12 -14 -29 -11 -50 6 -35 10 -38 33 -23 13 8 12 10
-2 10 -25 0 -23 37 2 52 11 7 20 16 20 20 0 14 -27 8 -42 -9z"/>
<path d="M4060 3500 c0 -5 5 -10 10 -10 6 0 10 5 10 10 0 6 -4 10 -10 10 -5 0
-10 -4 -10 -10z"/>
<path d="M4011 3464 c0 -11 3 -14 6 -6 3 7 2 16 -1 19 -3 4 -6 -2 -5 -13z"/>
<path d="M4100 3450 c0 -5 5 -10 11 -10 5 0 7 5 4 10 -3 6 -8 10 -11 10 -2 0
-4 -4 -4 -10z"/>
<path d="M3505 3430 c3 -5 8 -10 11 -10 2 0 4 5 4 10 0 6 -5 10 -11 10 -5 0
-7 -4 -4 -10z"/>
<path d="M2480 3409 c0 -5 5 -7 10 -4 6 3 10 8 10 11 0 2 -4 4 -10 4 -5 0 -10
-5 -10 -11z"/>
<path d="M3955 3410 c28 -12 37 -12 30 0 -3 6 -16 10 -28 9 -21 0 -21 -1 -2
-9z"/>
<path d="M4072 3360 c1 -33 6 -60 10 -60 5 0 7 27 6 60 -2 33 -6 60 -11 60 -4
0 -6 -27 -5 -60z"/>
<path d="M5333 3363 c20 -2 54 -2 75 0 20 2 3 4 -38 4 -41 0 -58 -2 -37 -4z"/>
<path d="M3600 3296 c0 -9 30 -14 35 -6 4 6 -3 10 -14 10 -12 0 -21 -2 -21 -4z"/>
<path d="M5327 3274 c6 -16 25 -14 30 2 2 5 -6 10 -16 11 -14 1 -18 -3 -14
-13z"/>
<path d="M2467 3244 c-11 -11 3 -24 18 -18 8 4 12 10 9 15 -6 11 -18 12 -27 3z"/>
<path d="M3068 3233 c7 -3 16 -2 19 1 4 3 -2 6 -13 5 -11 0 -14 -3 -6 -6z"/>
<path d="M3133 3233 c9 -2 23 -2 30 0 6 3 -1 5 -18 5 -16 0 -22 -2 -12 -5z"/>
<path d="M5796 3205 c-17 -44 -11 -47 97 -43 104 3 132 13 121 42 -7 19 -16
20 -32 4 -17 -17 -161 -16 -172 1 -5 10 -9 8 -14 -4z"/>
<path d="M5445 3200 c3 -5 1 -10 -4 -10 -20 0 -11 -22 10 -27 14 -4 19 -12 16
-24 -4 -15 0 -19 20 -19 17 0 22 4 16 13 -4 6 -6 20 -5 30 2 10 -2 25 -8 33
-14 16 -55 20 -45 4z"/>
<path d="M790 3145 c0 -8 7 -15 16 -15 14 0 14 3 4 15 -7 8 -14 15 -16 15 -2
0 -4 -7 -4 -15z"/>
<path d="M3907 3137 c-3 -8 1 -14 8 -14 7 0 11 6 8 14 -3 7 -6 13 -8 13 -2 0
-5 -6 -8 -13z"/>
<path d="M5272 3100 c0 -14 2 -19 5 -12 2 6 2 18 0 25 -3 6 -5 1 -5 -13z"/>
<path d="M5927 2998 c-6 -4 -27 -8 -44 -8 -18 0 -33 -4 -33 -10 0 -5 -8 -10
-17 -10 -15 0 -16 2 -3 10 11 7 7 10 -17 10 -22 0 -33 -5 -33 -14 0 -29 43
-29 213 0 21 4 36 12 34 17 -4 13 -82 17 -100 5z"/>
<path d="M5958 2922 c-20 -2 -28 -9 -28 -23 0 -22 11 -24 28 -7 10 10 15 10
22 -2 8 -12 10 -12 16 3 9 24 -4 34 -38 29z"/>
<path d="M5900 2896 c0 -14 5 -26 10 -26 6 0 10 9 10 19 0 11 -4 23 -10 26 -6
4 -10 -5 -10 -19z"/>
<path d="M5761 2854 c0 -11 3 -14 6 -6 3 7 2 16 -1 19 -3 4 -6 -2 -5 -13z"/>
<path d="M6024 2766 c-8 -22 3 -33 18 -18 9 9 9 15 0 24 -9 9 -13 7 -18 -6z"/>
<path d="M5700 2700 c0 -5 5 -10 10 -10 6 0 10 5 10 10 0 6 -4 10 -10 10 -5 0
-10 -4 -10 -10z"/>
<path d="M5829 2650 c-1 -3 -3 -24 -4 -46 -3 -37 -1 -41 16 -37 15 4 17 8 8
19 -6 8 -9 20 -6 27 3 8 1 20 -4 28 -5 8 -9 12 -10 9z"/>
<path d="M988 2613 c7 -3 16 -2 19 1 4 3 -2 6 -13 5 -11 0 -14 -3 -6 -6z"/>
<path d="M3912 2594 c-11 -12 -9 -14 8 -14 11 0 20 4 20 9 0 17 -15 19 -28 5z"/>
<path d="M3680 2251 l0 -171 35 0 35 0 0 79 c0 44 3 82 8 85 4 2 45 -34 92
-80 47 -46 90 -84 95 -84 6 0 10 62 10 165 l0 165 -37 0 -37 0 -3 -85 -3 -84
-45 42 c-25 24 -69 65 -97 91 l-53 49 0 -172z"/>
<path d="M474 2374 c-9 -21 -40 -92 -70 -156 -30 -64 -54 -122 -54 -127 0 -6
16 -11 35 -11 28 0 38 5 47 25 10 22 17 25 65 25 48 0 54 -3 63 -25 8 -21 16
-25 50 -25 l40 0 -14 33 c-47 107 -129 283 -137 291 -5 6 -15 -6 -25 -30z m46
-176 c0 -4 -12 -8 -26 -8 -14 0 -23 3 -21 8 2 4 7 16 11 27 7 20 8 20 22 1 8
-11 14 -23 14 -28z"/>
<path d="M680 2245 l0 -165 35 0 34 0 3 63 3 62 48 3 c46 3 47 4 47 38 l0 34
-50 0 c-49 0 -50 1 -50 30 l0 30 65 0 65 0 0 35 0 35 -100 0 -100 0 0 -165z"/>
<path d="M920 2245 l0 -165 35 0 34 0 3 63 3 62 40 -62 c39 -61 41 -63 82 -63
24 0 43 2 43 5 0 2 -13 26 -30 52 -36 56 -36 58 -10 86 46 48 36 127 -19 164
-28 19 -48 23 -107 23 l-74 0 0 -165z m148 78 c6 -9 12 -20 12 -25 0 -17 -41
-48 -65 -48 -23 0 -25 3 -25 51 l0 52 33 -7 c17 -3 38 -14 45 -23z"/>
<path d="M1190 2245 l0 -165 35 0 35 0 0 165 0 165 -35 0 -35 0 0 -165z"/>
<path d="M1310 2245 l0 -165 35 0 34 0 3 58 3 57 40 -52 c21 -29 43 -53 47
-53 4 0 24 23 45 50 20 28 41 50 44 50 4 0 7 -25 6 -55 l-2 -55 38 0 37 0 0
165 c0 91 -3 165 -7 165 -8 -1 -22 -18 -112 -142 -23 -32 -45 -58 -49 -58 -4
0 -41 45 -81 100 -41 55 -75 100 -77 100 -2 0 -4 -74 -4 -165z"/>
<path d="M1745 2254 c-39 -86 -71 -160 -73 -165 -2 -5 14 -9 36 -9 32 0 41 5
50 25 10 22 18 25 62 25 44 0 52 -3 62 -25 9 -21 18 -25 51 -25 27 0 38 4 34
13 -25 64 -142 317 -147 317 -3 0 -37 -70 -75 -156z m89 -30 c10 -26 7 -34
-15 -34 -15 0 -19 4 -15 16 3 9 6 20 6 25 0 15 17 10 24 -7z"/>
<path d="M2000 2407 c0 -2 18 -38 40 -80 22 -41 40 -80 40 -85 0 -6 -18 -41
-40 -80 -22 -38 -40 -72 -40 -76 0 -3 18 -6 40 -6 36 0 41 3 60 40 11 22 24
40 28 40 4 0 17 -18 30 -40 20 -36 26 -40 62 -40 22 0 40 2 40 4 0 2 -20 39
-44 82 l-45 78 36 65 c20 36 40 70 45 76 16 18 7 25 -32 25 -36 0 -41 -3 -60
-40 -11 -22 -25 -40 -30 -40 -5 0 -19 18 -31 40 -20 36 -27 40 -61 40 -21 0
-38 -1 -38 -3z"/>
<path d="M2410 2380 c0 -28 2 -30 40 -30 l40 0 0 -135 0 -135 35 0 34 0 3 133
3 132 38 3 c34 3 37 6 37 33 l0 29 -115 0 -115 0 0 -30z"/>
<path d="M2678 2255 c-2 -85 -1 -160 0 -165 2 -6 19 -10 37 -10 l34 0 3 63 3
62 43 -62 c40 -59 45 -63 82 -63 22 0 40 2 40 5 0 2 -13 26 -30 52 -31 48 -38
73 -20 73 15 0 40 56 40 92 0 72 -54 108 -159 108 l-70 0 -3 -155z m126 85
c20 -7 26 -17 26 -39 0 -32 -22 -51 -59 -51 -18 0 -21 6 -21 50 0 54 6 59 54
40z"/>
<path d="M3060 2346 c-16 -35 -50 -110 -74 -165 l-45 -101 40 0 c33 0 41 4 49
25 9 22 15 25 63 25 48 0 55 -3 65 -25 9 -20 19 -25 47 -25 19 0 35 5 35 10 0
6 -22 59 -49 118 -26 59 -58 128 -69 155 -12 26 -24 47 -27 47 -3 0 -19 -29
-35 -64z m38 -154 c-27 -5 -32 2 -18 29 l13 22 13 -24 c11 -22 11 -24 -8 -27z"/>
<path d="M3280 2245 l0 -165 65 0 c36 0 80 6 98 14 125 53 126 250 0 302 -18
8 -62 14 -98 14 l-65 0 0 -165z m152 78 c65 -57 29 -173 -54 -173 l-28 0 0 93
c0 52 2 96 5 99 9 9 59 -4 77 -19z"/>
<path d="M3566 2287 c1 -218 -1 -207 39 -207 l35 0 0 165 0 165 -37 0 -38 0 1
-123z"/>
<path d="M4074 2391 c-119 -72 -114 -233 8 -297 32 -17 111 -18 141 -3 42 22
87 74 98 112 17 62 11 67 -86 67 l-85 0 0 -35 0 -35 47 0 46 0 -23 -25 c-36
-38 -100 -35 -134 6 -71 84 17 194 118 147 22 -9 29 -8 46 7 27 25 25 32 -12
55 -43 26 -122 27 -164 1z"/>
<path d="M4480 2245 l0 -166 103 3 c99 3 102 4 105 27 5 31 -14 42 -61 35 -76
-11 -77 -9 -77 137 l0 129 -35 0 -35 0 0 -165z"/>
<path d="M4720 2245 l0 -165 35 0 35 0 0 165 0 165 -35 0 -35 0 0 -165z"/>
<path d="M4830 2244 l0 -165 38 3 c37 3 37 3 38 51 0 26 3 50 6 53 3 3 22 -18
43 -46 20 -27 40 -50 45 -50 4 0 23 22 41 50 19 27 37 50 42 50 4 0 7 -25 7
-55 l0 -55 35 0 35 0 0 165 c0 91 -2 165 -4 165 -3 0 -38 -45 -77 -100 -40
-55 -76 -100 -80 -100 -4 0 -40 45 -80 100 -40 55 -76 100 -81 100 -4 0 -8
-75 -8 -166z"/>
<path d="M5200 2244 l0 -165 36 3 36 3 4 163 4 162 -40 0 -40 0 0 -166z"/>
<path d="M5310 2380 c0 -25 4 -30 25 -31 14 -1 31 -2 38 -3 9 -1 13 -36 15
-133 l3 -133 34 0 34 0 3 133 3 132 35 0 c32 0 35 3 38 33 l3 32 -115 0 -116
0 0 -30z"/>
<path d="M5570 2245 l0 -165 100 0 c93 0 100 1 102 20 0 11 1 26 2 33 1 8 -18
12 -64 13 l-65 0 -3 32 -3 32 50 0 51 0 0 35 0 35 -50 0 c-49 0 -50 1 -50 30
l0 30 65 0 65 0 0 35 0 35 -100 0 -100 0 0 -165z"/>
<path d="M5805 2248 l0 -163 82 0 c91 0 122 14 157 74 24 41 25 125 3 168 -30
56 -72 78 -162 81 l-81 4 1 -164z m119 92 c7 0 25 -11 40 -25 21 -19 26 -33
26 -70 0 -37 -5 -51 -26 -70 -16 -15 -39 -25 -55 -25 l-29 0 0 101 c0 88 2
100 16 95 9 -3 21 -6 28 -6z"/>
<path d="M1045 1978 c-7 -26 -25 -171 -21 -176 13 -13 24 15 31 75 3 38 9 78
12 91 5 23 -14 32 -22 10z"/>
<path d="M1102 1981 c4 -13 18 -16 19 -4 0 4 -5 9 -11 12 -7 2 -11 -2 -8 -8z"/>
<path d="M1514 1963 c-4 -16 -12 -31 -18 -35 -7 -5 -7 -8 2 -8 12 0 12 -23 -4
-97 -3 -15 0 -23 10 -23 10 0 16 18 21 60 5 46 11 60 23 61 11 0 12 2 5 6 -7
2 -13 18 -13 34 0 37 -17 38 -26 2z"/>
<path d="M1610 1960 c0 -16 5 -30 10 -30 6 0 10 6 10 14 0 8 3 21 6 30 4 11 1
16 -10 16 -11 0 -16 -9 -16 -30z"/>
<path d="M3030 1958 c-14 -41 -23 -158 -11 -158 9 0 21 48 21 87 0 15 8 27 23
33 17 7 18 9 5 9 -22 1 -25 41 -3 41 8 0 15 5 15 10 0 6 -9 10 -19 10 -12 0
-23 -11 -31 -32z"/>
<path d="M3437 1984 c-8 -8 1 -24 14 -24 5 0 9 7 9 15 0 15 -12 20 -23 9z"/>
<path d="M3780 1956 l0 -34 -43 5 c-54 6 -90 -19 -90 -65 0 -48 18 -62 79 -62
60 0 59 -1 69 95 4 33 9 68 11 78 4 11 0 17 -10 17 -11 0 -16 -10 -16 -34z
m-26 -52 c22 -21 20 -50 -4 -74 -23 -23 -33 -24 -61 -10 -27 15 -25 64 3 84
28 20 43 20 62 0z"/>
<path d="M3922 1979 c2 -6 8 -10 13 -10 5 0 11 4 13 10 2 6 -4 11 -13 11 -9 0
-15 -5 -13 -11z"/>
<path d="M4932 1979 c2 -6 8 -10 13 -10 5 0 11 4 13 10 2 6 -4 11 -13 11 -9 0
-15 -5 -13 -11z"/>
<path d="M5252 1978 c6 -18 28 -21 28 -4 0 9 -7 16 -16 16 -9 0 -14 -5 -12
-12z"/>
<path d="M5330 1965 c0 -13 -8 -29 -17 -34 -12 -7 -13 -10 -5 -11 11 0 12 -13
7 -60 -4 -37 -3 -60 3 -60 12 0 22 34 22 78 0 24 6 35 23 42 17 7 18 9 5 9
-13 1 -18 9 -18 31 0 17 -4 30 -10 30 -5 0 -10 -11 -10 -25z"/>
<path d="M863 1968 c-53 -26 -65 -121 -20 -153 24 -17 104 -20 127 -5 24 15 6
20 -28 8 -69 -26 -126 29 -99 95 19 45 66 65 111 49 43 -16 51 -15 36 3 -15
18 -93 19 -127 3z"/>
<path d="M1095 1918 c-2 -7 -6 -37 -10 -65 -7 -67 11 -72 20 -5 4 26 9 55 12
65 5 19 -15 24 -22 5z"/>
<path d="M1165 1905 c-49 -48 -21 -105 51 -105 31 0 44 4 44 14 0 12 -5 12
-29 3 -25 -9 -33 -8 -50 8 -12 10 -21 22 -21 26 0 4 28 9 62 11 68 3 81 15 49
47 -29 29 -76 27 -106 -4z m76 5 c10 -6 19 -15 19 -19 0 -12 -50 -20 -73 -12
-19 7 -19 8 4 24 28 20 25 20 50 7z"/>
<path d="M1330 1903 c0 -16 -3 -45 -6 -65 -8 -47 12 -52 21 -5 12 57 16 67 36
78 35 18 50 -5 43 -62 -4 -31 -3 -49 4 -49 22 0 30 98 10 118 -7 7 -34 12 -60
12 -46 0 -48 -1 -48 -27z"/>
<path d="M1687 1923 c-16 -15 -6 -50 18 -63 26 -14 33 -34 15 -45 -5 -3 -19
-1 -30 5 -16 8 -20 8 -20 -3 0 -19 29 -26 58 -16 31 12 28 48 -5 75 -22 18
-25 25 -16 35 10 9 15 10 27 0 8 -7 17 -8 20 -3 10 17 -52 31 -67 15z"/>
<path d="M1864 1846 c-5 -45 -8 -84 -9 -88 0 -5 5 -9 10 -10 6 -2 11 9 13 25
3 25 7 27 45 27 58 0 87 22 87 65 0 49 -21 65 -84 63 l-54 -1 -8 -81z m107 64
c25 -14 25 -54 -1 -80 -24 -24 -43 -25 -64 -4 -23 22 -20 60 6 78 26 19 33 19
59 6z"/>
<path d="M2073 1915 c-29 -20 -38 -62 -18 -91 12 -19 24 -24 60 -24 24 0 47 5
50 11 11 17 1 19 -32 7 -25 -9 -35 -9 -47 1 -33 28 -19 41 44 41 52 0 60 3 60
18 0 45 -73 68 -117 37z m75 -7 c23 -23 13 -34 -28 -30 -43 4 -51 15 -22 31
23 14 36 13 50 -1z"/>
<path d="M2240 1910 c-22 -22 -27 -79 -8 -98 13 -13 114 -17 121 -4 3 4 8 32
11 62 l7 56 -55 2 c-45 2 -60 -2 -76 -18z m81 0 c25 -14 25 -62 -1 -85 -16
-15 -26 -17 -48 -9 -35 12 -42 54 -13 83 24 24 34 25 62 11z"/>
<path d="M2433 1915 c-45 -32 -34 -107 19 -117 30 -6 90 10 83 21 -3 5 -19 4
-35 -2 -40 -15 -64 0 -68 41 -3 24 3 34 24 48 25 17 28 17 55 2 16 -9 31 -13
34 -8 8 13 -28 30 -62 30 -16 0 -38 -7 -50 -15z"/>
<path d="M2612 1923 c-7 -3 -19 -18 -28 -34 -12 -25 -13 -34 -2 -57 11 -22 21
-28 57 -30 42 -3 72 10 58 25 -4 4 -13 1 -19 -5 -25 -25 -78 -8 -78 25 0 9 17
13 60 13 52 0 60 3 60 18 0 39 -61 64 -108 45z m66 -15 c24 -24 13 -33 -35
-29 l-47 3 23 19 c27 22 42 24 59 7z"/>
<path d="M2852 1913 c-51 -46 -28 -113 39 -113 47 0 79 27 79 68 0 56 -73 83
-118 45z m83 -17 c31 -47 -28 -111 -70 -76 -23 19 -19 66 7 84 31 22 45 20 63
-8z"/>
<path d="M3180 1911 c0 -10 -3 -39 -6 -65 -8 -59 13 -64 22 -5 9 52 33 83 58
73 16 -6 18 -14 12 -61 -8 -68 15 -70 26 -3 9 51 29 76 53 66 14 -5 17 -16 13
-61 -6 -67 13 -71 24 -5 12 70 3 77 -107 78 -86 1 -95 -1 -95 -17z"/>
<path d="M3426 1893 c-9 -56 -7 -93 4 -93 6 0 10 8 10 19 0 10 3 39 6 65 8 56
-10 64 -20 9z"/>
<path d="M3486 1882 c-8 -61 -8 -82 3 -82 5 0 12 20 15 44 7 47 36 82 61 73
11 -5 15 -21 15 -62 0 -66 15 -73 24 -10 10 66 -4 85 -63 84 l-49 -2 -6 -45z"/>
<path d="M3917 1913 c-13 -45 -18 -113 -8 -113 15 0 18 9 25 73 5 36 4 57 -3
57 -5 0 -12 -8 -14 -17z"/>
<path d="M3977 1923 c-14 -14 -6 -42 18 -61 39 -31 27 -64 -15 -42 -16 9 -20
8 -20 -5 0 -13 9 -16 38 -13 30 2 38 7 40 27 3 17 -5 31 -24 46 -32 26 -25 48
13 39 18 -5 24 -3 19 5 -8 12 -58 15 -69 4z"/>
<path d="M4170 1908 c-22 -24 -26 -58 -10 -89 16 -29 93 -27 114 3 20 29 20
72 0 92 -23 24 -79 20 -104 -6z m81 2 c24 -13 25 -57 2 -82 -20 -22 -41 -23
-65 -1 -25 23 -22 48 8 72 31 24 30 24 55 11z"/>
<path d="M4334 1883 c-8 -58 3 -77 48 -81 44 -4 63 18 72 81 9 57 -10 66 -19
10 -10 -58 -23 -83 -44 -83 -33 0 -44 24 -33 75 8 35 7 45 -4 45 -8 0 -16 -18
-20 -47z"/>
<path d="M4497 1913 c-13 -47 -18 -113 -8 -113 6 0 13 12 16 28 12 59 21 77
45 89 25 12 24 13 -12 13 -26 0 -38 -5 -41 -17z"/>
<path d="M4669 1925 c-4 -1 -25 -172 -22 -178 9 -15 23 5 23 32 0 28 1 28 43
24 56 -7 91 19 89 68 -1 44 -24 59 -84 57 -26 -1 -49 -2 -49 -3z m92 -15 c25
-14 25 -54 -1 -80 -23 -23 -33 -24 -61 -10 -25 14 -25 54 1 80 23 23 33 24 61
10z"/>
<path d="M4836 1884 c-8 -63 -8 -84 3 -84 5 0 11 22 15 50 5 40 12 52 34 64
l27 15 -36 1 c-36 0 -36 -1 -43 -46z"/>
<path d="M4925 1883 c-4 -27 -9 -56 -12 -65 -4 -18 11 -26 20 -10 11 18 18
122 8 122 -5 0 -13 -21 -16 -47z"/>
<path d="M5002 1914 c-25 -17 -31 -81 -10 -102 20 -20 85 -15 108 8 24 24 26
72 4 94 -20 20 -73 20 -102 0z m83 -18 c30 -46 -17 -102 -65 -76 -28 15 -27
64 2 84 31 22 45 20 63 -8z"/>
<path d="M5156 1893 c-9 -54 -7 -93 3 -93 5 0 12 23 16 50 6 40 12 53 33 65
l27 14 -36 1 c-34 0 -37 -2 -43 -37z"/>
<path d="M5245 1893 c-4 -21 -9 -50 -11 -65 -3 -16 -1 -28 5 -28 15 0 18 9 25
73 8 64 -9 82 -19 20z"/>
<path d="M5400 1903 c4 -15 13 -42 20 -60 10 -26 9 -36 -6 -58 -17 -25 -14
-43 5 -31 14 9 103 167 97 173 -9 9 -26 -8 -47 -50 l-22 -41 -16 44 c-18 49
-46 70 -31 23z"/>
</g>
</svg>
